<svg width="296" height="113" fill="none" xmlns="http://www.w3.org/2000/svg"><rect rx="32" width="296" height="113" fill="#007C34"/><path d="M73.66 53.28h-5.63c-.7-2.46-2.63-3.93-5.48-3.93-4 0-6.73 3.08-6.73 8.53 0 5.47 2.62 8.58 6.78 8.58 3.68 0 5.9-2.07 5.97-5.31h-5.63v-4.16H73.9v3.29c0 6.89-4.72 11.08-11.33 11.08-7.37 0-12.36-5.15-12.36-13.43 0-8.49 5.33-13.48 12.25-13.48 5.91 0 10.48 3.65 11.2 8.83Zm167.05 14.57c-.76 1.63-2.41 3.46-5.57 3.46-4.49 0-7.97-3.54-7.97-10.11 0-6.75 3.64-10.09 7.95-10.09 3.29 0 4.86 1.95 5.59 3.55h.17v-9.85h5.43V71h-5.37v-3.15h-.23ZM106.22 51.36h3.7v4.09h-3.7v9.51c0 1.51.75 1.92 1.84 1.92.51 0 1.08-.13 1.36-.18l.85 4.05c-.55.18-1.55.46-2.96.52-3.94.16-6.56-1.74-6.53-5.59V55.45h-2.69v-4.09h2.69v-4.7h5.44v4.7Zm42.55 0h3.7v4.09h-3.7v9.51c0 1.51.76 1.92 1.85 1.92.51 0 1.08-.13 1.35-.18l.86 4.05c-.55.18-1.55.46-2.96.52-3.94.16-6.56-1.74-6.54-5.59V55.45h-2.69v-4.09h2.69v-4.7h5.44v4.7Zm50.58 0h3.7v4.09h-3.7v9.51c0 1.51.75 1.92 1.84 1.92.51 0 1.08-.13 1.36-.18l.85 4.05c-.54.18-1.55.46-2.95.52-3.95.16-6.57-1.74-6.54-5.59V55.45h-2.69v-4.09h2.69v-4.7h5.44v4.7Zm-17 19.64h-5.45V51.36h5.28v3.43h.2c.72-2.44 2.53-3.71 4.72-3.71.56 0 1.23.08 1.72.19v4.83c-.51-.16-1.55-.29-2.31-.29-2.39 0-4.16 1.66-4.16 4.08V71ZM95.8 65.37c-.76 3.65-4.04 6.01-8.9 6.01-6.05 0-9.74-3.89-9.74-10.11 0-6.06 3.74-10.16 9.53-10.16 5.18 0 9.22 3.29 9.22 9.96v1.5H82.54v.01c0 2.93 1.73 4.73 4.45 4.73 1.81 0 3.22-.78 3.77-2.27l5.04.33Zm33.98-14.26c4.96 0 7.88 2.23 8.36 5.85l-4.98.31c-.28-1.27-1.4-2.31-3.29-2.31-1.69 0-3.02.77-3.01 1.95-.01.95.67 1.57 2.5 1.96l3.55.73c3.81.77 5.67 2.47 5.68 5.31-.01 3.87-3.66 6.47-8.75 6.47-5.2 0-8.39-2.32-8.91-6.07l5.36-.28c.34 1.6 1.63 2.42 3.57 2.42 1.9 0 3.16-.82 3.19-1.99-.03-.99-.8-1.61-2.51-1.95l-3.41-.68c-3.84-.77-5.68-2.67-5.67-5.62-.01-3.78 3.29-6.1 8.32-6.1Zm37.57 17.16c-.96 1.83-2.83 3.09-5.74 3.09-3.75 0-6.51-1.96-6.51-5.85 0-4.39 3.49-5.69 7.37-6.05 3.41-.33 4.75-.5 4.75-1.76v-.07c0-1.62-1.06-2.55-2.91-2.55-1.95 0-3.12.96-3.49 2.27l-5.04-.42c.76-3.57 3.85-5.82 8.55-5.82 4.38 0 8.34 1.96 8.34 6.64V71h-5.16v-2.73h-.16Zm56.88-2.9c-.76 3.65-4.04 6.01-8.9 6.01-6.05 0-9.74-3.89-9.74-10.11 0-6.06 3.74-10.16 9.53-10.16 5.18 0 9.22 3.29 9.22 9.96v1.5h-13.37v.01c0 2.93 1.73 4.73 4.45 4.73 1.81 0 3.22-.78 3.77-2.27l5.04.33ZM86.77 55.17c-2.41 0-4.11 1.79-4.23 4.02h8.25c-.02-2.34-1.65-4.02-4.02-4.02Zm128.43 0c-2.41 0-4.11 1.79-4.23 4.02h8.25c-.02-2.34-1.65-4.02-4.02-4.02Zm17.53 6.01c0 3.43 1.46 5.8 4.13 5.8 2.62 0 4.13-2.3 4.13-5.8 0-3.51-1.48-5.74-4.13-5.74-2.7 0-4.13 2.34-4.13 5.74Zm-72.43 4.15c0 1.5 1.19 2.28 2.87 2.28 2.39 0 4.09-1.57 4.09-3.64v-2.08c-.65.44-2.59.72-3.78.89-1.92.26-3.18 1.02-3.18 2.55Z" fill="#FFF" fill-rule="evenodd"/></svg>