<svg width="335" height="226.042" fill="none" xmlns="http://www.w3.org/2000/svg"><defs><clipPath id="a"><path transform="translate(134)" fill="#fff" fill-opacity="0" d="M0 0h66v66.306H0z"/></clipPath><clipPath id="b"><path transform="translate(134 159.736)" fill="#fff" fill-opacity="0" d="M0 0h66v66.306H0z"/></clipPath></defs><path fill="none" d="M0 75.347h75v75.347H0z"/><path d="M37.5 108.032c7.767 0 14.063-6.325 14.063-14.127 0-7.803-6.297-14.128-14.063-14.128-7.767 0-14.063 6.325-14.063 14.128 0 7.802 6.296 14.127 14.063 14.127Zm-28.125 25.9c0 16.483 56.25 16.483 56.25 0 0-28.843-56.25-29.138-56.25 0Z" clip-rule="evenodd" fill="#FFF" fill-rule="evenodd"/><path fill="none" d="M260 75.347h75v75.347h-75z"/><path d="M297.5 108.032c7.767 0 14.063-6.325 14.063-14.127 0-7.803-6.296-14.128-14.063-14.128-7.766 0-14.062 6.325-14.062 14.128 0 7.802 6.296 14.127 14.062 14.127Zm-28.125 25.9c0 16.483 56.25 16.483 56.25 0 0-28.843-56.25-29.138-56.25 0Z" clip-rule="evenodd" fill="#FFF" fill-rule="evenodd"/><path d="m78.77 70.65 8.32 1.04c.83.1 1.41.84 1.3 1.67-.1.84-.84 1.41-1.67 1.31l-11.91-1.49c-.83-.11-1.41-.84-1.3-1.68L75 59.6c.1-.84.84-1.41 1.67-1.31.83.11 1.41.84 1.3 1.68l-1.04 8.31 51.14-39.77 1.85 2.36-51.15 39.78ZM256.22 147.73l-8.32-1.04c-.83-.1-1.4-.84-1.3-1.67.1-.84.84-1.41 1.67-1.31l11.91 1.49c.83.11 1.41.84 1.3 1.68l-1.48 11.9a1.5 1.5 0 0 1-1.68 1.31c-.83-.11-1.41-.85-1.3-1.68l1.04-8.31-51.14 39.77-1.85-2.36 51.15-39.78ZM125.22 187.65l-8.32 1.04c-.83.1-1.4.84-1.3 1.67.1.84.84 1.41 1.67 1.31l11.91-1.49a1.48 1.48 0 0 0 1.3-1.68L129 176.6a1.5 1.5 0 0 0-1.68-1.31c-.83.11-1.41.85-1.3 1.68l1.04 8.31-51.14-39.78-1.85 2.37 51.15 39.78ZM209.78 30.73l8.31-1.04c.83-.1 1.41-.84 1.3-1.67-.1-.84-.84-1.41-1.67-1.31l-11.91 1.49c-.83.11-1.41.84-1.3 1.68l1.49 11.9c.1.84.84 1.41 1.67 1.31.83-.11 1.41-.85 1.3-1.68l-1.04-8.31 51.14 39.77 1.85-2.36-51.14-39.78Z" fill="#FFF" fill-rule="evenodd"/><path fill="none" d="M134 0h66v66.306h-66z"/><g clip-path="url(#a)"><path d="M191.75 11.05h-38.5c-1.46 0-2.86.58-3.89 1.61a5.55 5.55 0 0 0 0 7.82 5.512 5.512 0 0 0 3.89 1.62h38.5v35.91c0 .74-.29 1.44-.81 1.96-.52.51-1.22.81-1.94.81h-35.75c-2.92 0-5.72-1.17-7.78-3.24a11.039 11.039 0 0 1-3.22-7.82V16.57c0-2.93 1.15-5.74 3.22-7.81a10.94 10.94 0 0 1 7.78-3.24H189c.72 0 1.42.29 1.94.81s.81 1.22.81 1.95v2.77Zm-44 38.67c0 1.47.58 2.87 1.61 3.91a5.47 5.47 0 0 0 3.89 1.62h33V27.62h-33c-1.94.01-3.83-.5-5.5-1.48v23.58ZM189 19.33h-35.75c-.73 0-1.43-.29-1.95-.81-.52-.51-.8-1.22-.8-1.95a2.746 2.746 0 0 1 2.75-2.76H189v5.52Z" fill="#F7F7F7" fill-rule="evenodd"/></g><path fill="none" d="M134 159.736h66v66.306h-66z"/><g clip-path="url(#b)"><path d="M191.75 170.78h-38.5c-1.46 0-2.86.58-3.89 1.62a5.55 5.55 0 0 0 0 7.82 5.503 5.503 0 0 0 3.89 1.61h38.5v35.92c0 .73-.29 1.43-.81 1.95s-1.22.81-1.94.81h-35.75c-2.92 0-5.72-1.16-7.78-3.24a11.033 11.033 0 0 1-3.22-7.81v-33.15c0-2.93 1.15-5.74 3.22-7.82 2.06-2.07 4.86-3.23 7.78-3.23H189c.72 0 1.42.29 1.94.81.52.51.81 1.22.81 1.95v2.76Zm-44 38.68a5.512 5.512 0 0 0 5.5 5.53h33v-27.63h-33c-1.94 0-3.83-.51-5.5-1.48v23.58ZM189 179.07h-35.75a2.746 2.746 0 0 1-2.75-2.76c0-.73.28-1.44.8-1.96.52-.51 1.22-.8 1.95-.8H189v5.52Z" fill="#F7F7F7" fill-rule="evenodd"/></g></svg>